<svg xmlns="http://www.w3.org/2000/svg" version="1.1" xmlns:xlink="http://www.w3.org/1999/xlink" xmlns:svgjs="http://svgjs.com/svgjs" width="512" height="512" x="0" y="0" viewBox="0 0 3873 3873" style="enable-background:new 0 0 512 512" xml:space="preserve" class=""><g><linearGradient id="a" x1="827.192" x2="3045.777" y1="829.723" y2="3048.308" gradientUnits="userSpaceOnUse"><stop offset="0" stop-color="#ee0979"></stop><stop offset="1" stop-color="#ff6a00"></stop></linearGradient><path fill="url(#a)" d="M3638.5 1729.7h-147C3398.2 1030 2843.1 475.9 2143.3 383.6V234.5c0-33.4-27.1-60.5-60.5-60.5h-292.6c-33.4 0-60.5 27.1-60.5 60.5v149c-699.9 92.2-1255 646.4-1348.2 1346.2h-147c-33.4 0-60.5 27.1-60.5 60.5v292.6c0 33.4 27.1 60.5 60.5 60.5h146.4c91.4 702.2 646.7 1258.3 1348.8 1350.8v144.4c0 33.4 27.1 60.5 60.5 60.5h292.6c33.4 0 60.5-27.1 60.5-60.5v-144.4c702.1-92.5 1257.3-648.6 1348.7-1350.8h146.5c33.4 0 60.5-27.1 60.5-60.5v-292.6c0-33.4-27.1-60.5-60.5-60.5zm-269.3 0h-166c-89.1-544-519.3-970.5-1059.9-1057.9v-166c633 90.4 1134.4 591.1 1225.9 1223.9zm-407.9 413.6h119.9c-84.6 480.2-457.8 854.1-937.9 939.7v-121.7c0-33.4-27.1-60.5-60.5-60.5h-292.6c-33.4 0-60.5 27.1-60.5 60.5v122c-480.2-85.6-853.4-459.7-937.9-940h119.9c33.5 0 60.5-27.1 60.5-60.5v-292.6c0-33.4-27.1-60.5-60.5-60.5H792.6c86.3-477.8 459-849.9 937.1-935.2v117.2c0 33.4 27.1 60.5 60.5 60.5h292.6c33.4 0 60.5-27 60.5-60.5V794.6c478 85.3 850.8 457.3 937.1 935.1h-119.1c-33.4 0-60.5 27.1-60.5 60.5v292.6c0 33.4 27.1 60.5 60.5 60.5zM2022.2 295v556.2h-171.5V295zm-292.5 210.6v166.1C1185.3 760 758.4 1189 669.8 1729.7h-166c91.4-632.9 592.8-1133.6 1225.9-1224.1zM295 1850.8h556.2v171.5H437.3c-1.7-.1-3.4-.1-5.2 0H295zm208 292.5h166.1c87.3 545.6 517.5 974.5 1060.6 1062.6v166C1094.6 3281.1 592.8 2778.6 503 2143.3zM2022.2 3578h-171.5v-556.2h171.5zm121.1-206.1v-166.4c544.1-88.2 973.3-517.9 1060.5-1062.3h166c-89.7 635.4-591.4 1137.9-1226.5 1228.7zM3578 2022.3h-422c-3.4-.3-6.8-.3-10.1 0h-124.1v-171.5H3578zm-1011.7-777.8h-359.5c-33.4 0-60.5 27.1-60.5 60.5v391.2h-419.5V1305c0-33.4-27.1-60.5-60.5-60.5h-359.5c-33.4 0-60.5 27.1-60.5 60.5v1263c0 33.4 27.1 60.5 60.5 60.5h359.5c33.4 0 60.5-27.1 60.5-60.5v-391.2h419.5V2568c0 33.4 27.1 60.5 60.5 60.5h359.5c33.4 0 60.5-27.1 60.5-60.5V1305c0-33.4-27.1-60.5-60.5-60.5zm-60.5 1263h-238.5v-391.2c0-33.4-27.1-60.5-60.5-60.5h-540.5c-33.4 0-60.5 27.1-60.5 60.5v391.2h-238.5v-1142h238.5v391.2c0 33.4 27.1 60.5 60.5 60.5h540.5c33.4 0 60.5-27.1 60.5-60.5v-391.2h238.5z" data-original="url(#a)" class=""></path></g></svg>